<mxfile host="app.diagrams.net" modified="2023-09-23T15:12:37.722Z" agent="Mozilla/5.0 (Windows NT 10.0; Win64; x64) AppleWebKit/537.36 (KHTML, like Gecko) Chrome/116.0.0.0 Safari/537.36 OPR/102.0.0.0" version="21.8.1" etag="1gOYdAOMSAcdhf7r0wcK" type="github">
  <diagram name="PÃ¡gina-1" id="0HP0nk4f14asAMj_sh2m">
    <mxGraphModel>
      <root>
        <mxCell id="0" />
        <mxCell id="1" parent="0" />
      </root>
    </mxGraphModel>
  </diagram>
</mxfile>
